<svg id="Layer_1" enable-background="new 0 0 512 512" viewBox="0 0 512 512" xmlns="http://www.w3.org/2000/svg"><g><g fill="#d3dcfb"><path d="m258.8 466c-.6.5-1.1 1.1-1.7 1.7v-.7c.2-.1.4-.2.6-.4h.1c.3-.2.7-.4 1-.6z"/><path d="m445 381c-51.3-2.3-105.5 19-153.8 56.6-11.1 8.6-21.9 18.1-32.3 28.4h-.1c-.4.2-.7.4-1.1.7 10.6-18.4 21.8-35.5 33.4-51.2 34.4-46.5 72.1-80 107.9-92.5v-151.4c-.1-15.8-.1-31.7-.1-47.5v-42.2c15.4-3.3 30.7-4.6 45.9-3.9v123.8c.2 59.7.2 119.5.2 179.2z"/></g><path d="m256.2 467.6c-.1.1-.1.1-.2.1v-.3z" fill="#bec8f7"/><path d="m399.1 171.6v151.3c-35.9 12.5-73.6 46-107.9 92.5-11.6 15.7-22.8 32.9-33.4 51.2h-.1c-.2.1-.4.2-.6.4-.2.1-.4.2-.6.4v-299.8c-.1-.1-.1-.1-.2-.1.3-.2.5-.4.8-.5v-2.3c42.3-73.2 93.7-128 142-144.8v104.2c-.1 15.9-.1 31.7 0 47.5z" fill="#e9efff"/><path d="m476.3 133v300.1c-.2-.1-.3-.1-.5-.1-61.7-16.6-126.9-9.4-184.7 16.2-11 4.8-21.7 10.4-32 16.6l.1-.2c10.2-10.1 20.9-19.5 31.9-28 48.4-37.6 102.5-58.9 153.9-56.6 0-59.7 0-119.5-.1-179.3v-75.2c10.6 1.6 21 3.7 31.4 6.5z" fill="#bec8f7"/><path d="m259.2 465.6-.1.2c-.1 0-.2.1-.2.1z" fill="#bec8f7"/><path d="m502.3 171.6h-26v261.5c-.1-.1-.4-.1-.5-.1v29h-167.8l-16.9-8v-4.8c-11.1 4.9-21.9 10.5-32.3 16.7h-.1c-.4.2-.7.4-1.1.7h-.1c-.2.1-.4.2-.6.4-.2.1-.4.2-.6.4-.1.1-.1.1-.2.2h-.1l-.2-.2c-.1 0-.1-.1-.1-.1-.3-.2-.6-.4-.9-.6-11-6.6-22.4-12.5-34.1-17.7v5l-16.8 8h-167.7v-290.4h-26.5c-4.9 0-8.7 3.3-8.7 7.5v305.6c0 4.2 3.9 7.5 8.7 7.5h194.9c5.6 0 11.2-1.2 16-3.6l35.4-16.9 35.4 16.9c4.9 2.3 10.4 3.6 16 3.6h194.8c4.9 0 8.7-3.3 8.7-7.5v-305.6c.1-4.2-3.8-7.5-8.6-7.5z" fill="#2a428c"/><path d="m220.8 449v5l-16.8 8h-167.8v-28.9c61.7-16.7 126.9-9.6 184.6 15.9z" fill="#3c58a0"/><path d="m475.8 433v29h-167.8l-16.9-8v-4.8c57.8-25.6 123.1-32.8 184.7-16.2z" fill="#3c58a0"/><path d="m254.9 466.7c-11-6.6-22.4-12.5-34.1-17.7-57.7-25.5-122.9-32.6-184.7-15.9v-300.1c10.5-2.9 21.2-5.1 32-6.6-.1 15.1-.1 30.1-.1 45.2v30.1c0 59.8 0 119.5-.1 179.3 51-2.3 104.7 18.7 152.8 55.8 11.9 9 23.3 19.1 34.2 29.9z" fill="#bec8f7"/><path d="m256.5 167.6v299.8c-.1.1-.1.1-.2.2h-.1l-.2-.2c-.1 0-.1-.1-.1-.1-.3-.2-.6-.4-.9-.6-11-10.8-22.4-20.9-34.1-29.9-48.2-37.1-101.9-58.1-152.9-55.8.1-59.7.1-119.5.1-179.3v-30.1c0-15.1 0-30.1.1-45.2v-48.4c63.8-2.9 131.9 30.8 187.8 86.7v2.6c.1.1.1.1.2.2h.1c.1 0 .1 0 .2.1z" fill="#d3dcfb"/><g><path d="m225.7 219.1c-1.8 0-3.6-.6-5.2-1.8-36.8-29.4-76.5-48.5-114.6-55.2-4.5-.8-7.5-5.1-6.7-9.6s5.1-7.5 9.6-6.7c40.9 7.1 83.1 27.4 122.1 58.6 3.6 2.9 4.2 8.1 1.3 11.7-1.7 1.9-4.1 3-6.5 3z" fill="#fd995b"/></g><g><path d="m225.7 288.8c-1.8 0-3.6-.6-5.2-1.8-36.8-29.4-76.5-48.5-114.6-55.2-4.5-.8-7.5-5.1-6.7-9.6s5.1-7.5 9.6-6.7c40.9 7.1 83.1 27.4 122.1 58.6 3.6 2.9 4.2 8.1 1.3 11.7-1.7 1.9-4.1 3-6.5 3z" fill="#fd995b"/></g><g><path d="m225.7 366.4c-1.8 0-3.6-.6-5.2-1.8-36.8-29.4-76.5-48.5-114.6-55.2-4.5-.8-7.5-5.1-6.7-9.6s5.1-7.5 9.6-6.7c40.9 7.1 83.1 27.4 122.1 58.6 3.6 2.9 4.2 8.1 1.3 11.7-1.7 1.9-4.1 3-6.5 3z" fill="#fd995b"/></g><g fill="none"><path d="m259.1 465.9-3.1 5.3"/><path d="m261.4 462-2.2 3.6"/></g></g></svg>